# xmcd
#
# Track frame offsets:
#	150
#	16960
#	33545
#	49846
#	65261
#	85337
#	95559
#	111206
#	127989
#	144737
#	161118
#	181091
#	198745
#	214761
#	224900
#	235463
#
# Disc length: 3393 seconds
#
# Revision: 1
# Processed by: cddbd v1.5.1PL0 Copyright (c) Steve Scherf et al.
# Submitted via: EasyCDDAExtractor 5.1.0
#
DISCID=f40d3f10
DTITLE=Various Artist - compil
DYEAR=1900
DGENRE=Country
TTITLE0=Olivia
TTITLE1=In A Different Light
TTITLE2=deck 51
TTITLE3=Closer
TTITLE4=hors shoe
TTITLE5=The Lion Sleeps Tonight
TTITLE6=country - Achy breaky heart
TTITLE7=stray cat strut
TTITLE8=Cannibals
TTITLE9=Adalida
TTITLE10=Twist And Shout
TTITLE11=boogie woogie choo choo line
TTITLE12=slap and ladder
TTITLE13=ten step
TTITLE14=bug it
TTITLE15=The Bug
EXTD=
EXTT0=
EXTT1=
EXTT2=
EXTT3=
EXTT4=
EXTT5=
EXTT6=
EXTT7=
EXTT8=
EXTT9=
EXTT10=
EXTT11=
EXTT12=
EXTT13=
EXTT14=
EXTT15=
PLAYORDER=
